<?xml version="1.0" encoding="UTF-8" standalone="no"?>
<!-- Generator: Adobe Illustrator 24.1.3, SVG Export Plug-In . SVG Version: 6.00 Build 0)  -->

<svg
   version="1.1"
   id="Layer_1"
   x="0px"
   y="0px"
   viewBox="0 0 174.5 198.25"
   xml:space="preserve"
   sodipodi:docname="NGINX-Logo-White-Endorsement-RGB.svg"
   width="174.5"
   height="198.25"
   inkscape:version="1.1 (c4e8f9ed74, 2021-05-24)"
   xmlns:inkscape="http://www.inkscape.org/namespaces/inkscape"
   xmlns:sodipodi="http://sodipodi.sourceforge.net/DTD/sodipodi-0.dtd"
   xmlns="http://www.w3.org/2000/svg"
   xmlns:svg="http://www.w3.org/2000/svg"><defs
   id="defs39"><inkscape:perspective
     sodipodi:type="inkscape:persp3d"
     inkscape:vp_x="0 : 99.099998 : 1"
     inkscape:vp_y="0 : 1000 : 0"
     inkscape:vp_z="500.5 : 99.099998 : 1"
     inkscape:persp3d-origin="250.25 : 66.049998 : 1"
     id="perspective306" /></defs><sodipodi:namedview
   id="namedview37"
   pagecolor="#ffffff"
   bordercolor="#666666"
   borderopacity="1.0"
   inkscape:pageshadow="2"
   inkscape:pageopacity="0.0"
   inkscape:pagecheckerboard="0"
   showgrid="false"
   inkscape:zoom="2.4795205"
   inkscape:cx="104.05238"
   inkscape:cy="99.01108"
   inkscape:window-width="1890"
   inkscape:window-height="1001"
   inkscape:window-x="26"
   inkscape:window-y="23"
   inkscape:window-maximized="0"
   inkscape:current-layer="Layer_1"
   fit-margin-top="0"
   fit-margin-left="0"
   fit-margin-right="0"
   fit-margin-bottom="0" />
<style
   type="text/css"
   id="style2">
	.st0{fill:#999999;}
	.st1{fill:#FFFFFF;}
	.st2{fill:#009639;}
</style>













<path
   class="st2"
   d="m 1.4,148.725 c 0.9,1.6 2.2,2.8 3.8,3.7 l 77,44.4 v 0 c 3.2,1.9 7.1,1.9 10.2,0 l 77,-44.4 c 3.2,-1.8 5.1,-5.2 5.1,-8.9 v -88.8 0 c 0,-3.7 -1.9,-7.1 -5.1,-8.9 l -77,-44.4 v 0 c -3.2,-1.9 -7.1,-1.9 -10.2,0 v 0 l -77,44.4 c -3.3,1.8 -5.2,5.2 -5.2,8.9 v 0 88.9 c 0,1.8 0.4,3.5 1.4,5.1"
   id="path30" />
<path
   class="st1"
   d="m 62.6,133.025 c 0,5.5 -4.4,9.9 -9.9,9.9 -5.5,0 -9.9,-4.4 -9.9,-9.9 v 0 -67.9 c 0,-5.3 4.7,-9.6 11.2,-9.6 4.7,0 10.2,1.9 13.5,6 l 3,3.6 41.4,49.5 v -49.3 0 c 0,-5.5 4.4,-9.9 9.9,-9.9 5.5,0 9.9,4.4 9.9,9.9 v 0 67.9 c 0,5.3 -4.7,9.6 -11.2,9.6 -4.7,0 -10.2,-1.9 -13.5,-6 l -44.4,-53 z"
   id="path32" />

</svg>
